# xmcd CD database file
#
# Track frame offsets:
#	150
#	18700
#	42587
#	65952
#	82705
#	100610
#	120865
#	139660
#	166947
#	189590
#	213145
#	231082
#	244797
#	270905
#	297375
#	319405
#
# Disc length: 4461 seconds
#
# Revision: 3
# Processed by: cddbd v1.5.2PL0 Copyright (c) Steve Scherf et al.
# Submitted via: CDex 1.51
#
DISCID=dc116b10
DTITLE=Sarah McLachlan - Mirrorball
DYEAR=1999
DGENRE=Rock
TTITLE0=Building A Mystery
TTITLE1=Hold On
TTITLE2=Good Enough
TTITLE3=I Will Remember You
TTITLE4=Adia
TTITLE5=I Love You
TTITLE6=Do What You Have To Do
TTITLE7=The Path Of Thorns (Terms)
TTITLE8=Fear
TTITLE9=Possession
TTITLE10=Sweet Surrender
TTITLE11=Ice Cream
TTITLE12=Fumbling Towards Ecstacy
TTITLE13=Angel
TTITLE14=Wait
TTITLE15=Plenty
EXTD=YEAR: 1999
EXTT0=
EXTT1=
EXTT2=
EXTT3=
EXTT4=
EXTT5=
EXTT6=
EXTT7=
EXTT8=
EXTT9=
EXTT10=
EXTT11=
EXTT12=
EXTT13=
EXTT14=
EXTT15=
PLAYORDER=
